<?xml version="1.0" encoding="utf-8"?>
<!-- Generator: Adobe Illustrator 15.0.0, SVG Export Plug-In . SVG Version: 6.00 Build 0)  -->
<!DOCTYPE svg PUBLIC "-//W3C//DTD SVG 1.1//EN" "http://www.w3.org/Graphics/SVG/1.1/DTD/svg11.dtd">
<svg version="1.1" id="Layer_1" xmlns:sketch="http://www.bohemiancoding.com/sketch/ns"
	 xmlns="http://www.w3.org/2000/svg" xmlns:xlink="http://www.w3.org/1999/xlink" x="0px" y="0px" width="27px" height="29px"
	 viewBox="0 0 27 29" enable-background="new 0 0 27 29" xml:space="preserve">
<title>Path 1</title>
<desc>Created with Sketch.</desc>
<path fill="#FFFFFF" d="M25.155,20.421c-0.21-0.437-3.028-6.3-4.086-8.486c-0.043-0.089-0.043-0.089-0.087-0.178
	c-2.254-4.659-3.705-7.591-4.186-8.419c-1.614-3.25-6.066-3.176-7.644,0.052C7.807,5.954,4.43,12.859,0.901,20.371
	c-1.832,4.841,3.219,9.191,7.69,6.922c1.517-0.815,3.09-1.977,4.495-3.319c1.406,1.356,2.944,2.521,4.36,3.308
	C21.193,29.729,26.973,25.083,25.155,20.421z M9.975,16.156c-0.35-2.503,1.025-3.976,3.026-3.926
	c1.995,0.049,3.384,1.582,3.001,3.931c-0.206,1.708-1.359,3.649-2.916,5.405C11.492,19.789,10.257,17.83,9.975,16.156z
	 M18.308,25.863c-1.31-0.729-2.748-1.829-4.06-3.094c1.804-2.009,3.149-4.281,3.402-6.377c0.545-3.341-1.635-5.748-4.608-5.821
	c-3.011-0.074-5.209,2.28-4.712,5.836c0.348,2.062,1.777,4.346,3.597,6.362c-1.29,1.237-2.736,2.314-4.109,3.054
	c-3.115,1.582-6.648-1.463-5.384-4.809c3.494-7.434,6.861-14.319,8.205-16.878c0.989-2.022,3.672-2.067,4.692-0.017
	c0.474,0.819,1.933,3.768,4.152,8.356c0.044,0.089,0.044,0.089,0.087,0.178c1.056,2.183,3.876,8.048,4.061,8.428
	C24.834,24.178,20.752,27.459,18.308,25.863z"/>
</svg>
