<?xml version="1.0" encoding="UTF-8" standalone="no"?>
<svg width="275px" height="380px" viewBox="0 0 275 380" version="1.1" xmlns="http://www.w3.org/2000/svg" xmlns:xlink="http://www.w3.org/1999/xlink" xmlns:sketch="http://www.bohemiancoding.com/sketch/ns">
    <!-- Generator: Sketch 3.0.3 (7891) - http://www.bohemiancoding.com/sketch -->
    <title>co 2</title>
    <desc>Created with Sketch.</desc>
    <defs></defs>
    <g id="Page-1" stroke="none" stroke-width="1" fill="none" fill-rule="evenodd" sketch:type="MSPage">
        <g id="Desktop-HD" sketch:type="MSArtboardGroup" transform="translate(-580.000000, -180.000000)" stroke-opacity="0.3" stroke="#FFFFFF">
            <path d="M583.349253,427.456313 C582.55638,427.280253 581.792873,427.07485 581,426.89879 C581.704776,422.379922 587.108057,420.9421 591.277981,423.113504 C593.421674,419.240189 587.783467,415.601619 589.868429,411.669617 C592.57007,406.622569 598.913052,406.886659 604.198871,406.065047 C605.197304,405.91833 604.786184,403.746926 606.16637,404.480509 C607.194169,405.008688 609.514056,405.507524 609.48469,403.893643 C609.425959,400.724566 613.977636,396.792564 611.099801,394.70919 C616.150695,394.591816 616.943568,388.781843 618.353119,385.700796 C619.469014,383.265302 621.73017,381.592734 624.079423,380.154913 C621.05476,377.954165 624.578639,377.631389 625.459609,375.401298 C623.374647,375.489328 620.761103,377.01518 619.938865,374.286253 C621.553976,373.90479 622.699237,372.819088 622.61114,371.234549 C620.996029,370.735713 617.824537,374.579686 617.413418,371.616012 C617.002299,368.534966 618.969798,367.918756 621.642073,366.686338 C617.384052,366.745024 619.204723,361.668633 619.733305,359.585259 C620.790469,355.50654 619.645208,350.019343 618.969798,345.852595 C618.470582,342.712862 616.738008,339.690502 616.326889,336.550768 C616.091963,334.819514 622.200021,334.144618 620.937297,330.153929 C620.17379,327.747778 613.683979,322.231238 617.707075,320.82276 C621.348417,319.590341 617.795172,312.577292 616.091963,310.992754 C612.685547,307.764991 612.010137,302.923346 608.368795,300.194419 C605.960811,298.433821 608.13387,296.174387 609.396593,294.531162 C610.894242,292.565161 609.191033,289.982951 611.04107,288.310383 C612.156965,289.454772 613.008569,290.716533 613.566517,292.095669 C617.942,289.278712 624.079423,283.762171 621.671439,278.274974 C619.234089,272.670404 615.152262,271.467328 618.705507,266.156191 C621.05476,268.709058 623.609572,272.142224 625.665169,274.959181 C627.779496,277.864168 632.595464,278.744467 628.513638,282.265663 C634.592329,288.134323 630.833525,271.261925 629.923189,269.471984 C628.601734,266.86043 641.728184,260.874397 643.343296,258.761679 C645.340161,256.120782 646.661615,251.660601 650.185494,250.281466 C652.182359,249.489197 657.057059,249.929346 658.114223,247.875315 C659.582506,244.970328 656.352283,243.91397 656.939596,242.124028 C657.938029,238.925608 658.143588,234.93492 659.993625,232.088619 C656.851499,231.82453 657.615006,230.885544 659.641237,229.917215 C661.491273,229.036916 660.522207,226.660109 660.346013,225.192944 C659.905528,221.701091 666.395339,220.732762 666.277876,219.500344 C666.101682,217.681059 673.501828,210.638667 675.381231,210.697354 C679.081304,210.75604 682.458355,213.69037 686.158428,213.719714 C683.016302,213.367594 683.721078,216.389954 680.872609,216.389954 C683.691712,223.549719 687.567979,214.013147 688.419583,211.430936 C690.563277,205.004753 693.793499,205.474246 701.516668,206.589292 C712.05894,208.144486 714.819312,202.12911 722.630577,197.756958 C726.917963,195.350808 739.809488,192.475164 735.140348,185.520802 C736.814191,185.080652 741.571428,183.701517 739.104712,186.84125 C742.246838,186.430444 739.985682,183.584144 743.362733,182.175666 C747.44456,180.473754 751.144633,180.473754 754.962169,183.143995 C768.059253,192.299104 741.923816,195.99636 738.370571,200.485885 C736.461803,202.892036 735.962587,206.383888 733.6427,208.467263 C732.027588,209.934428 729.179119,209.640995 727.769568,211.225533 C725.126658,214.159863 722.454383,218.678731 720.898003,222.229271 C718.54875,227.511065 718.930504,232.939575 717.755878,238.485459 C716.493154,243.972656 712.381962,250.545555 708.53506,254.829677 C711.912111,254.917707 714.466924,253.743975 716.845542,251.777974 C717.462221,253.069079 717.755878,254.389528 717.697146,255.768663 C724.040129,254.301498 722.425017,264.45428 725.890165,268.151536 C730.823596,273.43333 732.262513,276.543719 729.883895,283.028589 C728.679903,286.285695 726.859232,293.269401 731.88076,294.912625 C737.577698,296.790597 734.905423,302.747287 740.749189,303.950362 C743.098442,304.449198 745.271501,303.128749 747.532657,302.894003 C751.23273,302.541883 754.727243,304.771974 758.456682,304.478541 C761.775002,304.214452 764.447277,302.101734 767.853693,302.160421 C770.84899,302.189764 773.227609,304.801318 776.105444,305.388184 C778.219771,305.828333 780.099173,304.273138 782.096038,305.769646 C784.709582,307.735648 786.588984,311.344874 788.556483,313.780367 C790.40652,316.039802 792.080362,318.328579 793.754205,320.676043 C795.927264,323.698403 796.690771,322.847447 799.7448,323.639716 C804.20838,324.784105 808.114013,321.673715 813.957779,323.727746 C815.719719,324.343956 819.507889,322.642044 821.416657,322.583358 C825.557215,322.524671 829.110459,322.818104 832.634339,320.82276 C836.657434,318.592669 843.705192,322.994164 841.708327,326.867479 C840.592432,329.09757 837.655866,330.799482 837.244747,333.264319 C836.716165,336.316022 838.184448,337.929904 835.012957,339.895905 C830.843033,342.536802 832.986727,353.10039 832.663704,357.413855 C832.252585,362.490246 834.7193,367.918756 835.923293,373.28858 C836.804262,377.367299 845.61396,382.70778 844.292506,386.845185 C842.677394,391.921576 831.988294,393.91692 832.370048,400.020327 C836.187583,397.408773 845.878251,406.974689 847.17034,409.879676 C846.935415,410.642602 846.70049,411.434871 846.553661,412.256483 C847.082243,413.723648 848.667989,415.190813 848.72672,416.775351 C848.785451,420.061801 850.987876,423.52431 851.986308,426.781417 C852.749816,429.334284 855.950672,435.819153 852.250599,436.229959 C848.785451,436.611422 849.519593,433.266286 849.754518,431.270942 C850.136272,428.160552 845.790154,413.694305 840.768626,415.308186 C838.066986,416.188485 830.314451,428.806104 827.935833,421.411593 C827.054863,418.682666 823.090499,417.420904 823.619081,421.411593 C824.206394,425.901118 817.80468,424.257893 814.398264,424.257893 L799.069389,424.257893 C795.692339,424.257893 791.992265,422.467952 788.703312,423.7884 C783.799246,425.754401 787.96917,435.731123 787.528685,439.399036 C791.493049,436.963542 800.978157,439.07626 802.886925,443.037605 C803.591701,444.534113 804.061552,449.463788 800.919426,449.199698 C798.981293,449.052982 797.7773,446.764204 795.692339,447.086981 C791.111296,447.820563 783.094471,448.964952 782.859545,453.777253 C782.565889,459.61657 782.007941,467.832694 787.587417,471.647323 C790.377154,473.583981 793.666108,475.256549 793.460548,478.895118 C793.225623,482.416314 795.193122,483.766106 796.661405,486.729779 C799.979725,493.449395 795.281219,502.633848 794.077227,509.50018 C791.170027,526.049802 791.170027,544.037245 785.120701,560 C783.799246,556.948297 781.156337,554.190027 778.807084,551.783876 C776.076078,549.054949 772.728393,551.783876 769.556901,550.140651 C766.620335,548.644143 774.549064,538.197928 775.606227,536.61339 C777.720555,533.532343 784.533388,527.311564 781.508725,524.377233 C780.216636,523.115472 777.867383,519.682305 775.72369,520.415888 C772.082348,521.67765 769.116417,516.777319 766.679067,515.45687 C762.59724,513.226779 762.039293,515.075407 758.104294,516.777319 C754.374855,518.3912 750.645417,515.603587 747.796948,513.901675 C744.449262,511.935674 738.399936,518.361857 734.494304,519.711649 C732.115685,520.533261 727.505277,519.242156 724.509979,519.594276 C720.369421,520.093112 718.401922,519.330186 715.201065,517.070752 C712.704984,515.310154 715.259796,510.996689 714.408192,508.297105 C713.262932,504.658536 706.743755,506.624537 706.097711,502.956624 C705.62786,500.345071 705.099278,497.175994 703.983383,494.7405 C702.808757,492.15829 698.433273,492.715812 696.730065,490.456378 C694.880029,487.991541 693.441111,488.050228 690.886299,487.287302 C687.656076,486.318973 686.68701,481.800105 686.510816,479.188551 C686.158428,474.170847 675.234402,466.717648 670.066046,465.338513 C669.067614,465.074424 668.01045,463.460542 667.12948,464.751647 C666.131048,466.101439 666.160413,466.688305 664.104817,465.866693 C661.080154,464.604931 656.381649,463.137766 653.768105,461.318481 C651.712509,459.939346 641.346431,449.082325 640.436095,456.535523 C639.966245,460.408839 624.373079,455.860627 620.966663,455.303105 C615.475285,454.422806 619.410283,450.2854 615.328456,448.730205 C611.745846,447.35107 613.243494,444.651487 608.662452,444.5928 C605.079841,444.563457 598.501933,440.249992 595.770927,438.28399 C591.21925,434.968198 586.902498,431.681748 583.349253,427.456313" id="co-2" sketch:type="MSShapeGroup"></path>
        </g>
    </g>
</svg>