<?xml version="1.0" encoding="UTF-8" standalone="no"?>
<svg width="16px" height="16px" viewBox="0 0 16 16" version="1.1" xmlns="http://www.w3.org/2000/svg" xmlns:xlink="http://www.w3.org/1999/xlink" xmlns:sketch="http://www.bohemiancoding.com/sketch/ns">
    <!-- Generator: Sketch 3.0.4 (8053) - http://www.bohemiancoding.com/sketch -->
    <title>16</title>
    <desc>Created with Sketch.</desc>
    <defs></defs>
    <g id="Page-1" stroke="none" stroke-width="1" fill="none" fill-rule="evenodd" sketch:type="MSPage">
        <g id="16" sketch:type="MSArtboardGroup">
            <path d="M15.0857864,16 L8.8817842e-16,16 L8.8817842e-16,14.9142136 L0,14.9142136 L7,7.91421356 L15.0857864,16 L15.0857864,16 Z M16,14.0857864 L16,0 L14.9142136,0 L8.41421356,6.5 L16,14.0857864 L16,14.0857864 Z M0,12.0857864 L0,0 L12.0857864,0 L0,12.0857864 L0,12.0857864 L0,12.0857864 Z" id="Rectangle-1" fill="#CED6D2" sketch:type="MSShapeGroup"></path>
            <path d="M0,12.0857864 L0,0 L12.0857864,0 L0,12.0857864 L0,12.0857864 L0,12.0857864 Z" id="Rectangle-3" fill="#E7EDEB" sketch:type="MSShapeGroup"></path>
            <path d="M16,14.0857864 L16,0 L14.9142136,0 L8.41421356,6.5 L16,14.0857864 L16,14.0857864 Z" id="Rectangle-2" fill="#E1E8EA" sketch:type="MSShapeGroup"></path>
            <path d="M8,13 C8,13 12,9.46785312 12,7.16666666 C12,4.86548021 10.209139,3 8,3 C5.790861,3 4,4.86548021 4,7.16666666 C4,9.46785312 8,13 8,13 Z" id="Oval-1" stroke="#212529" stroke-linejoin="round" fill="#FFFFFF" sketch:type="MSShapeGroup"></path>
            <circle id="Oval-2" fill="#212529" sketch:type="MSShapeGroup" cx="8" cy="7" r="1"></circle>
        </g>
    </g>
</svg>