<?xml version="1.0" encoding="UTF-8" standalone="no"?>
<svg width="62px" height="61px" viewBox="0 0 62 61" version="1.1" xmlns="http://www.w3.org/2000/svg" xmlns:xlink="http://www.w3.org/1999/xlink" xmlns:sketch="http://www.bohemiancoding.com/sketch/ns">
    <!-- Generator: Sketch 3.0.3 (7891) - http://www.bohemiancoding.com/sketch -->
    <title>path2384</title>
    <desc>Created with Sketch.</desc>
    <defs></defs>
    <g id="Page-1" stroke="none" stroke-width="1" fill="none" fill-rule="evenodd" sketch:type="MSPage">
        <g id="World_Heritage_Logo" sketch:type="MSLayerGroup" transform="translate(1.000000, 0.000000)" fill="#282828">
            <path d="M28.5596815,58.8643438 C28.6309479,58.2710219 28.6900603,57.485063 28.6910425,57.1177685 C28.6927459,56.4804411 28.7288897,56.4499603 29.4828986,56.4499603 C30.7173,56.4499603 31.3727219,57.4393418 30.6302055,58.1818582 C30.4526137,58.3594521 30.0365178,58.5047548 29.7055479,58.5047548 C29.1548075,58.5047548 29.103787,58.5657308 29.103787,59.2239329 C29.103787,59.7533753 29.0149212,59.943111 28.7669466,59.943111 C28.4811308,59.943111 28.4497336,59.7796973 28.5596815,58.8643438 L28.5596815,58.8643438 Z M30.2995849,57.5287274 C30.3356979,57.2744466 30.2894651,57.065137 30.1968452,57.0635938 C30.1042253,57.0620507 29.8203966,57.0050322 29.5661158,56.936887 C29.1575445,56.8273952 29.103787,56.889039 29.103787,57.4670404 C29.103787,58.0593267 29.1571479,58.1149521 29.6688555,58.056074 C30.0734466,58.0095205 30.2525712,57.8597568 30.2995849,57.5287274 L30.2995849,57.5287274 Z M31.4465384,59.2596719 C31.6746123,58.0439363 32.2822726,56.380087 32.527389,56.3001699 C32.7829829,56.2168356 34.4919555,59.2923041 34.3787589,59.6318938 C34.3415712,59.7434568 34.076661,59.581724 33.7900685,59.2724856 C33.068024,58.4933856 32.2935493,58.5169788 32.0112884,59.3266726 C31.7109925,60.1881041 31.2819144,60.1371986 31.4465384,59.2596719 L31.4465384,59.2596719 Z M32.9734438,57.7920205 C32.7158568,57.2266747 32.3914582,57.2871103 32.3914582,57.9004438 C32.3914582,58.1608479 32.5325651,58.2992753 32.7980116,58.2992753 C33.1557205,58.2992753 33.1767986,58.2383322 32.9734438,57.7920205 L32.9734438,57.7920205 Z M35.4848877,57.8714795 C35.2373733,56.4864678 35.2011021,56.4222432 34.7328021,56.5397774 C34.3882767,56.6262493 34.2407733,56.5765521 34.2407733,56.3740027 C34.2407733,56.2015521 34.5519411,56.0283473 35.0113212,55.9451014 C35.4351226,55.8682993 35.9899171,55.7555199 36.2441979,55.6944781 C36.5780219,55.614339 36.7065267,55.6753521 36.7065267,55.9139856 C36.7065267,56.1246432 36.5300404,56.2444808 36.2198034,56.2444808 L35.7330801,56.2444808 L36.0111144,57.4259877 C36.3630164,58.9213973 36.3649644,59.3266726 36.0202562,59.3266726 C35.8405582,59.3266726 35.6546301,58.8212959 35.4848877,57.8714795 L35.4848877,57.8714795 Z M37.5367007,57.3529726 C37.3061322,56.6064801 37.1174856,55.8703192 37.1174856,55.7170582 C37.1174856,55.3112137 38.6503253,54.9377425 39.1714212,55.2166233 C39.6233219,55.4584747 39.7494534,56.5284596 39.3548137,56.7723616 C39.2141116,56.8593185 39.3719363,57.0690041 39.7657726,57.3183637 C40.4236459,57.7348993 40.6015171,58.0948315 40.1483075,58.0924418 C40.0070404,58.0916979 39.614061,57.9073747 39.2750199,57.682837 C38.4019171,57.1046034 38.1056795,57.142011 38.3554479,57.7989534 C38.6288199,58.5179774 38.6078137,58.7102342 38.2558788,58.7102342 C38.0655,58.7102342 37.8027658,58.2143918 37.5367007,57.3529726 L37.5367007,57.3529726 Z M38.7069945,56.547076 C39.2572048,56.1616952 39.1040548,55.6280425 38.4432452,55.6280425 C37.8608856,55.6280425 37.7166966,55.8259993 37.8705411,56.4143014 C38.009213,56.9445822 38.1154089,56.9614397 38.7069945,56.547076 L38.7069945,56.547076 Z M24.0902568,58.2370932 C23.5478342,57.8404644 23.7461137,57.1831521 24.4320555,57.1040075 C25.0691281,57.0304993 25.3981993,57.5276589 25.0635884,58.0581247 C24.7810829,58.5059897 24.5229144,58.5534596 24.0902568,58.2370932 L24.0902568,58.2370932 Z M18.9325541,57.8439637 C18.593513,57.7243993 18.2845827,57.5999959 18.2460421,57.5675096 C18.1190227,57.4604425 19.3300169,54.3951658 19.4993349,54.3951658 C19.900689,54.3951658 21.0900884,55.0122247 21.0900884,55.2204452 C21.0900884,55.429461 20.7767425,55.3898568 19.9355856,55.074524 C19.8091705,55.0271342 19.6546849,55.1835986 19.5922849,55.4222199 C19.5056455,55.7535267 19.6043096,55.9037856 20.0097,56.0579158 C20.3822158,56.1995466 20.4758774,56.3244452 20.3236911,56.4766315 C20.1718336,56.628489 19.9857329,56.628713 19.7029562,56.4773753 C19.3673437,56.2977596 19.261695,56.3433411 19.0777196,56.7471226 C18.8798205,57.181463 18.9203211,57.2595103 19.4595136,57.48285 C20.0663363,57.7342048 20.2838733,58.1077644 19.8058418,58.0775733 C19.6645747,58.0686514 19.2715952,57.963526 18.9325541,57.8439637 L18.9325541,57.8439637 Z M40.4417836,56.193111 C39.7027089,54.5098027 39.6789041,54.3951658 40.0684479,54.3951658 C40.2223007,54.3951658 40.6383966,55.0865486 40.9931055,55.9315726 C41.7311384,57.6897822 41.7296548,57.682837 41.3669486,57.682837 C41.2178507,57.682837 40.8015267,57.0124603 40.4417836,56.193111 L40.4417836,56.193111 Z M41.7840144,55.6548349 C40.9135521,54.043237 40.9199014,54.0671979 41.3223925,53.9127493 C41.4967212,53.8458514 42.0848486,54.1733877 42.7212288,54.6917795 L43.8192678,55.5862356 L43.6683082,54.5283719 C43.424176,52.8175808 43.4487945,52.5451952 43.8469377,52.5519616 C44.3518603,52.5605404 45.8484493,55.2043808 45.5214226,55.5100644 C45.3686466,55.6528705 45.2577,55.6582479 45.2071212,55.5253027 C45.1641267,55.412289 44.9150199,54.9663781 44.6535493,54.5343904 L44.17815,53.7489596 L44.2684048,54.9967192 C44.3747404,56.4667849 44.1686651,56.5766568 43.0686288,55.6363932 C42.0962507,54.8052473 41.9862986,54.8602788 42.5721288,55.8848918 C43.1440932,56.88525 43.1807795,57.0663986 42.8114116,57.0663986 C42.6656712,57.0663986 42.2033425,56.4311938 41.7840144,55.6548349 L41.7840144,55.6548349 Z M16.364061,56.7151438 C15.3022167,56.3247123 14.8073659,55.2816288 15.2178775,54.299137 C15.7502195,53.0250637 17.0394604,52.7786795 18.0237027,53.7629219 C18.3540503,54.0932692 18.6243349,54.4631322 18.6243349,54.5848397 C18.6243349,54.9862171 18.1092861,54.8150815 17.9025119,54.3449959 C17.5080076,53.4481212 16.1177038,53.6273527 15.7717765,54.6196808 C15.498444,55.4037637 15.7574542,55.9820671 16.4610532,56.1586603 C17.3208892,56.3744651 17.7839749,55.7803151 16.9598151,55.5187377 C16.6876654,55.4323603 16.6001899,55.3097219 16.7230769,55.1868349 C16.9337568,54.9761548 18.0078966,55.3645068 18.0078966,55.6513562 C18.0078966,55.7409123 17.9005886,56.0497007 17.7694346,56.3375527 C17.5362838,56.8492623 17.0697302,56.9746151 16.364061,56.7151438 L16.364061,56.7151438 Z M13.6225597,54.5430925 C13.7155023,53.9703534 13.6511998,53.8258932 13.1945301,53.5814897 C12.7816632,53.3605295 12.6009483,53.3500582 12.4147036,53.5363048 C12.1384325,53.812574 11.4325541,53.8649034 11.4325541,53.6091123 C11.4325541,53.5158226 12.1330366,52.9957582 12.9891818,52.4534116 C14.7460695,51.3404651 15.0838262,51.3827692 14.7490159,52.6738233 C14.6353831,53.112 14.4401564,53.8634877 14.3151789,54.3437959 C14.036961,55.4130308 13.4541754,55.5807226 13.6225597,54.5430925 L13.6225597,54.5430925 Z M14.1625613,52.7542479 C14.2712562,52.3385979 14.127059,52.3527801 13.5289923,52.8165555 C13.3172133,52.9807808 13.3151967,53.0558938 13.5191815,53.1819637 C13.8505198,53.3867404 14.0280183,53.2687418 14.1625613,52.7542479 L14.1625613,52.7542479 Z M46.2319377,54.1914164 C45.0699452,53.7224938 44.7584137,52.0497822 45.674887,51.2004226 C46.4035212,50.5251473 47.3755582,50.5311945 48.059624,51.2152603 C49.0201623,52.1758007 48.8991452,53.2864808 47.7581486,53.9821397 C47.0167808,54.4341493 46.8799315,54.4529137 46.2319377,54.1914164 L46.2319377,54.1914164 Z M47.8024171,53.3677685 C48.2966918,52.8734938 48.3162349,52.5786637 47.8946199,51.9767219 C47.4190068,51.2976904 46.8537822,51.0508829 46.3687705,51.3104527 C45.6763623,51.6810185 45.4887842,52.2575938 45.8398027,52.936389 C46.3199055,53.8648068 47.1278055,54.0423801 47.8024171,53.3677685 L47.8024171,53.3677685 Z M10.0035312,52.2890014 C10.0086643,52.1477342 10.424004,51.6160562 10.9265079,51.1074945 C11.9211859,50.100826 12.0009392,49.9221308 11.5352938,49.7434459 C11.2249853,49.6243685 11.0940955,49.0451404 11.3811842,49.0614616 C11.7013079,49.079661 13.3609701,50.6859288 13.2127734,50.8341247 C13.127483,50.9194151 12.8807482,50.878689 12.6644737,50.7436233 C12.3188102,50.5277527 12.1646047,50.6218829 11.3895721,51.52185 C10.5359914,52.5130253 9.98429486,52.8183801 10.0035312,52.2890014 L10.0035312,52.2890014 Z M23.6585815,51.8311808 C17.7011445,50.065087 12.6460169,45.9230836 9.86027384,40.5253027 C8.04751336,37.0128164 7.32296507,33.9884651 7.32296507,29.9342712 C7.32296507,23.8627151 9.40682404,18.7130406 13.6529328,14.2915282 C17.1098815,10.6917754 21.6164384,8.3189363 26.4743404,7.54066849 C28.9096623,7.15051397 33.259576,7.37706966 35.7214192,8.02228212 C39.5331863,9.02128932 43.0854822,11.0645673 45.9673171,13.9157139 C54.6875301,22.5430664 54.9422342,36.5743521 46.5397644,45.4509801 C43.7521171,48.3959384 40.8258082,50.2974452 37.1757822,51.5356705 C33.907239,52.6444808 31.9409075,52.5482404 31.1434459,51.2404212 C30.7792747,50.6431849 30.7494062,50.1543575 30.7523877,44.8403712 L30.7556137,39.0869466 L35.0594527,34.6691384 C37.4265637,32.2393438 39.3665445,30.2043432 39.3705247,30.1469158 C39.3745048,30.0894863 37.2507945,27.9170425 34.6511712,25.3192623 L29.9245808,20.5960233 L25.1489178,25.3716863 L20.3732548,30.1473493 L24.7385219,34.516161 L29.103787,38.8849705 L29.0972527,44.9448637 C29.0900671,51.6073685 29.1126329,51.4836432 27.8050808,52.0299719 C26.7769295,52.4595616 25.5855945,52.4024466 23.6585815,51.8311808 L23.6585815,51.8311808 Z M24.9864205,44.2753027 L24.9786411,41.1417411 L19.548526,35.5937959 L14.1184108,30.0458507 L21.867187,22.2887486 C26.1290158,18.0223416 29.6842911,14.5548758 29.7678021,14.5832686 C29.851311,14.6116615 33.4167103,18.1277704 37.690911,22.3968432 L45.4621829,30.1587966 L40.1596973,35.4359897 L34.8572116,40.7131849 L34.8572116,44.0748719 L34.8572116,47.4365589 L35.3195404,47.2937733 C40.2547603,45.7695925 44.5845637,42.0329486 46.6528932,37.5130315 C47.8136363,34.9764596 48.1031856,33.5087363 48.1057377,30.1485904 C48.1076178,27.6713219 48.0279514,26.8747541 47.6330774,25.422563 C46.1954692,20.1355932 42.6437959,15.8692689 37.720724,13.5156877 C34.8835479,12.1593146 33.1907733,11.795311 29.7202253,11.795311 C27.3195103,11.795311 26.4301007,11.8802207 25.1413664,12.2324429 C17.3874945,14.3516437 11.920072,20.9606404 11.3054001,28.9572986 C10.8091527,35.4132986 14.3256886,41.8269205 20.3187678,45.3963 C21.6899342,46.2129432 24.2406658,47.3663856 24.7373486,47.3943842 C24.9325521,47.4053897 24.9923301,46.6567849 24.9864205,44.2753027 L24.9864205,44.2753027 Z M48.8597836,50.9366096 C47.8440041,49.7640801 47.5296493,49.1330096 48.0473137,49.3055651 C48.1820055,49.3504623 48.75315,49.9151055 49.3165212,50.5603274 C50.0199082,51.3659055 50.2744623,51.7998329 50.1289932,51.9453021 C49.983524,52.0907712 49.5858678,51.7747377 48.8597836,50.9366096 L48.8597836,50.9366096 Z M8.35036233,50.7408863 C8.35036233,50.4802089 10.4973836,48.4362616 10.7712072,48.4362616 C11.2213525,48.4362616 11.0381507,48.7421692 9.93636678,49.8302671 C8.94287219,50.8114212 8.35036233,51.1516151 8.35036233,50.7408863 L8.35036233,50.7408863 Z M49.910437,49.8031336 C48.2832021,48.2394041 48.5981342,47.9946658 51.5010473,48.5670411 C51.9516123,48.6558801 51.9032178,48.5648342 51.1072603,47.8262199 C50.5382815,47.2982322 50.2721137,46.9117705 50.3937082,46.790176 C50.6162075,46.5676767 53.1506938,48.6202788 53.0605377,48.9499603 C52.9974164,49.1807836 51.8342137,49.2121438 50.5352897,49.0180438 L49.6722719,48.8890808 L50.5735603,49.6386986 C51.4422082,50.3611685 51.7435747,50.9020151 51.2774979,50.9020151 C51.1545452,50.9020151 50.5393685,50.4075185 49.910437,49.8031336 L49.910437,49.8031336 Z M7.52844452,49.7191521 C7.52844452,49.5206322 7.61409801,49.0595507 7.71878568,48.6945247 C7.95682438,47.8645336 7.72901096,47.7056527 7.05785712,48.2335829 C6.45167342,48.7104062 6.29556781,48.7397836 6.29556781,48.3770342 C6.29556781,48.2314459 6.68854726,47.7917548 7.16885548,47.3999425 C8.94399945,45.9518651 8.73963801,46.0112507 9.40088507,46.7513158 C9.72720719,47.1165329 9.99419795,47.596689 9.99419795,47.8183274 C9.99419795,48.290589 9.1011226,48.9427336 8.67717308,48.7800473 C8.36598884,48.6606349 8.14488288,49.0369315 8.14488288,49.6859445 C8.14488288,49.9027274 8.00618425,50.0800973 7.8366637,50.0800973 C7.66714315,50.0800973 7.52844452,49.9176719 7.52844452,49.7191521 L7.52844452,49.7191521 Z M9.32996918,47.8134884 C9.36278692,47.6430801 9.27134219,47.341876 9.12675884,47.1441473 C8.88284158,46.8105699 8.82959815,46.8086507 8.3886039,47.1175356 C7.93320781,47.4365075 7.92838541,47.4670705 8.27331616,47.8482144 C8.6800013,48.2975959 9.24028459,48.2791829 9.32996918,47.8134884 L9.32996918,47.8134884 Z M52.3762315,47.0274205 C51.7839534,46.598889 51.2389356,46.1878479 51.1650822,46.1139966 C51.0162945,45.9652068 51.9241521,44.5357849 52.1688555,44.5335555 C52.4171445,44.5312932 52.3341,45.0138658 52.0132397,45.4378356 C51.7512103,45.7840664 51.7579685,45.8607205 52.0711459,46.0945829 C52.3725123,46.319626 52.4775432,46.2921062 52.7712411,45.9111473 C53.2003089,45.3546 53.5385753,45.6219432 53.1640726,46.2216164 C52.9262774,46.6023884 52.9406959,46.6962678 53.2745918,46.9412404 C53.6143397,47.1905055 53.7068199,47.1626486 54.0772582,46.6994753 C54.8371479,45.7493589 55.0874384,46.2067336 54.3637685,47.2230349 C54.1300438,47.5512678 53.8295301,47.8168397 53.6959603,47.8131945 C53.5623884,47.8095493 52.9685096,47.4559521 52.3762315,47.0274205 L52.3762315,47.0274205 Z M5.0844189,46.6836781 C4.81383493,46.2863692 4.62890342,45.9314527 4.67346,45.894974 C4.71801637,45.8584952 5.34697911,45.4311144 6.07115507,44.9452377 L7.38783822,44.061826 L7.9663124,44.7593178 C8.62373445,45.552 8.6847113,45.7650288 8.254185,45.7650288 C8.0882739,45.7650288 7.83061705,45.5323521 7.68161425,45.2479705 C7.44248897,44.7915842 7.36633377,44.7633534 7.03259733,45.007389 C6.71322185,45.2409205 6.69303637,45.3558801 6.90263795,45.747524 C7.23591986,46.3702664 6.94782904,46.6042973 6.55929226,46.0264397 C6.31371226,45.6611979 6.17289062,45.6107445 5.86257534,45.7768212 C5.39474548,46.0271959 5.36164932,46.443674 5.78186897,46.792426 C6.15681021,47.1036 6.18234925,47.4093678 5.83323884,47.407461 C5.69197171,47.4066884 5.35500267,47.0809849 5.0844189,46.6836781 L5.0844189,46.6836781 Z M3.82981418,44.7429082 C3.82981418,44.6327959 4.10721144,44.3992582 4.44625253,44.2239329 C5.16974055,43.8498021 5.1545363,43.9167781 4.72192418,43.0095822 C4.38927205,42.3120021 4.36749678,42.3020507 3.80747075,42.5916514 C3.14534568,42.93405 2.80241692,42.9698527 2.80241692,42.6965815 C2.80241692,42.5113788 5.39737151,41.0390014 5.72377479,41.0390014 C5.81223349,41.0390014 5.8846089,41.1777 5.8846089,41.3472205 C5.8846089,41.5167411 5.80981582,41.6554397 5.71840253,41.6554397 C5.62698904,41.6554397 5.38496199,41.7777247 5.18056479,41.9271842 C4.82856637,42.1845699 4.82722541,42.2343 5.15518068,42.8684959 C5.41290534,43.3668801 5.58981041,43.5004377 5.84712781,43.3908925 C6.37346548,43.1668212 6.96556603,43.1723527 7.03761945,43.4020151 C7.07307596,43.5150288 6.43517404,43.9095986 5.62005945,44.278837 C4.02665568,45.0006329 3.82981418,45.0516575 3.82981418,44.7429082 L3.82981418,44.7429082 Z M54.9341507,42.8373986 C53.9536027,42.3934664 53.5579829,42.1084418 53.6040349,41.8791144 C53.6570055,41.6153466 53.9557603,41.5552788 55.1607021,41.5661404 L56.6518192,41.5795808 L55.5747945,40.489011 C54.7562918,39.6602116 54.5551192,39.3410938 54.736689,39.159524 C54.9182568,38.9779562 55.3477479,39.0828658 56.5259979,39.5965911 C57.378713,39.9683836 58.0763897,40.3525562 58.0763897,40.4503089 C58.0763897,40.7146582 57.6020055,40.666426 56.7658664,40.3170658 C55.82145,39.922463 55.8156616,40.1991781 56.75115,41.0205473 C57.1524041,41.3728541 57.4243438,41.7522966 57.355461,41.8637527 C57.2865781,41.9752068 56.6577637,42.0712726 55.9580979,42.0772295 L54.6859788,42.0880603 L55.7645322,42.5395582 C56.7390452,42.9475048 57.0398075,43.2979993 56.5224514,43.4227993 C56.4165021,43.4483589 55.7017664,43.1849281 54.9341507,42.8373986 L54.9341507,42.8373986 Z M55.9465664,38.5583342 C55.2565212,38.0155459 55.2023692,36.831676 55.8310295,36.0324658 C56.1634295,35.609887 56.436076,35.4910562 57.0732452,35.4910562 C58.6657808,35.4910562 59.4661418,37.1795034 58.4724349,38.4427973 C57.9296466,39.1328425 56.7457767,39.1869945 55.9465664,38.5583342 L55.9465664,38.5583342 Z M58.1674788,37.9110884 C58.590226,37.3075315 58.5709623,37.013026 58.0763897,36.5184534 C57.3099452,35.7520089 55.8161158,36.2037226 55.8161158,37.2019295 C55.8161158,38.3034041 57.5305274,38.8204623 58.1674788,37.9110884 L58.1674788,37.9110884 Z M1.62888021,38.6142699 C1.32507925,38.4212034 0.747622582,37.0820363 0.747622582,36.5705651 C0.747622582,36.2833397 1.06384027,36.1174767 2.1346087,35.843061 C2.89745116,35.6475596 3.62620027,35.4883808 3.75405103,35.4893301 C3.88190178,35.4902795 4.08983856,35.9014253 4.21613301,36.4029863 C4.48024911,37.4518849 4.27682753,38.2240438 3.64767925,38.5607548 C3.17560192,38.8134021 1.99161226,38.844789 1.62888021,38.6142699 L1.62888021,38.6142699 Z M3.4323637,37.9495808 C3.67711068,37.8185959 3.82860534,37.5225452 3.82666767,37.1790329 C3.82110658,36.1930952 3.62993178,36.0890096 2.41382795,36.4098123 C1.81307548,36.5682884 1.29269692,36.7269123 1.2574313,36.7623103 C1.22216568,36.7977103 1.31973267,37.1271863 1.47424664,37.4944808 C1.70575295,38.0447938 1.86776096,38.162289 2.39504733,38.162289 C2.74697363,38.162289 3.21376603,38.0665705 3.4323637,37.9495808 L3.4323637,37.9495808 Z M0.450472377,35.2342068 C0.40714724,35.0929397 0.324732514,34.6388404 0.267328336,34.2250973 C0.148136692,33.3660205 0.171181829,33.3536692 2.34008815,33.1140842 C3.40768952,32.9961514 3.62433493,33.0242137 3.62433493,33.2804301 C3.62433493,33.5118575 3.26208658,33.6243349 2.17028075,33.7319199 L0.716226966,33.8751986 L0.852725733,34.6831274 C0.944014705,35.2234623 0.913049774,35.4910562 0.759234842,35.4910562 C0.632740664,35.4910562 0.493797514,35.375474 0.450472377,35.2342068 L0.450472377,35.2342068 Z M56.8948829,34.7241637 C55.5791425,34.6056575 55.7187432,34.0675336 57.2558055,33.3328849 C58.6129192,32.6842438 58.5678575,32.4172973 57.1003623,32.4120103 C56.4287055,32.4095918 56.2270747,32.3309425 56.2270747,32.0713726 C56.2270747,31.7806582 56.4021267,31.7521788 57.4900932,31.8658932 C58.1847534,31.9384993 58.9707123,31.9979055 59.2366685,31.9979055 C59.5785884,31.9979055 59.7202253,32.1149014 59.7202253,32.3973411 C59.7202253,32.6869315 59.3823041,32.9484288 58.4914315,33.3482281 C57.1743514,33.9392979 57.0632692,34.2581795 58.1744507,34.2581795 C58.9792295,34.2581795 59.5147459,34.4311623 59.5147459,34.6911226 C59.5147459,34.8706808 58.6435829,34.8816678 56.8948829,34.7241637 L56.8948829,34.7241637 Z M0.0748789521,32.4646932 C0.149831075,32.2693705 0.470559226,31.8912884 0.787608267,31.6245082 C1.5507037,30.9824055 1.51460589,30.7650288 0.644882856,30.7650288 C0.142599842,30.7650288 -0.074295226,30.672074 -0.074295226,30.4568096 C-0.074295226,30.2070103 0.256754979,30.1485904 1.67228014,30.1485904 L3.41885527,30.1485904 L3.41885527,31.0685116 C3.41885527,31.8162555 3.32528795,32.0497397 2.91893568,32.3159918 C2.53005534,32.5707966 2.32467555,32.5930623 1.99427815,32.416239 C1.76067247,32.2912171 1.56954041,32.0950068 1.56954041,31.9802178 C1.56954041,31.8654308 1.26029877,32.0073822 0.88233676,32.2956678 C0.0752673082,32.9112493 -0.11148187,32.9503418 0.0748789521,32.4646932 L0.0748789521,32.4646932 Z M2.76132103,31.7513301 C2.89693747,31.6157137 3.00789637,31.3383164 3.00789637,31.1348918 C3.00789637,30.8609199 2.84807897,30.7650288 2.39145801,30.7650288 C1.73699507,30.7650288 1.64381445,30.9578445 1.9877287,31.6004548 C2.23376918,32.0601863 2.41677349,32.0958781 2.76132103,31.7513301 L2.76132103,31.7513301 Z M56.4325541,29.8552849 C56.4325541,28.8952315 56.5078849,28.6808075 56.9739637,28.314189 C58.2392548,27.3189103 59.6241596,28.0989596 59.7747596,29.8917411 L59.8653781,30.9705082 L58.1489671,30.9705082 L56.4325541,30.9705082 L56.4325541,29.8552849 L56.4325541,29.8552849 Z M59.3092664,29.7523089 C59.3092664,28.9898425 58.829887,28.5047548 58.0763897,28.5047548 C57.3228925,28.5047548 56.843513,28.9898425 56.843513,29.7523089 C56.843513,30.3508089 56.8501952,30.3540699 58.0763897,30.3540699 C59.3025842,30.3540699 59.3092664,30.3508089 59.3092664,29.7523089 L59.3092664,29.7523089 Z M1.02913932,29.2408438 C0.214988199,28.8806342 0.0751444315,28.6458945 0.0751444315,27.6394788 C0.0751444315,26.5322836 0.671816897,25.9456007 1.79786548,25.9456007 C3.3569063,25.9456007 4.17699,27.6578486 3.16200596,28.7937801 C2.57508966,29.4506342 1.84784548,29.6030692 1.02913932,29.2408438 L1.02913932,29.2408438 Z M2.56276377,28.5877562 C3.22748959,28.1221623 3.10808836,27.0894719 2.34008815,26.6618507 C1.83243432,26.379189 1.71760521,26.379339 1.20995137,26.6633178 C0.429546349,27.0998753 0.399398404,28.2656836 1.15858151,28.6497678 C1.82830829,28.9885932 2.00140192,28.9809493 2.56276377,28.5877562 L2.56276377,28.5877562 Z M56.2270747,26.9636589 C56.2270747,26.7770014 56.4177904,26.6554397 56.7106315,26.6554397 C56.9765877,26.6554397 57.7625466,26.5960336 58.4572068,26.5234274 C59.5015747,26.4142705 59.7202253,26.444774 59.7202253,26.6996363 C59.7202253,26.925861 59.3842315,27.042974 58.4572068,27.1398658 C56.5714582,27.3369658 56.2270747,27.3097562 56.2270747,26.9636589 L56.2270747,26.9636589 Z M1.98049911,24.9919562 C0.374875664,24.0303144 0.162330185,23.5823651 1.29762452,23.5527658 C1.72971247,23.5415014 2.30636116,23.4698815 2.5790661,23.3936116 C3.04441541,23.263463 3.01599637,23.2236945 2.11673733,22.746637 C0.884692377,22.0930397 0.807538541,21.5184534 1.95182014,21.5184534 C2.38810151,21.5184534 3.17406041,21.4596514 3.69839568,21.3877849 C4.48764144,21.2796062 4.65173199,21.3133582 4.65173199,21.583876 C4.65173199,21.8442966 4.37014295,21.9229705 3.26474568,21.9713938 L1.87775938,22.0321521 L3.05926623,22.640026 C4.74679068,23.5082404 4.68188281,23.9461068 2.85378678,24.0261884 L1.46680068,24.0869466 L2.64777534,24.7033849 C3.71986582,25.2629877 4.0241811,25.6323842 3.50875253,25.7484904 C3.40280219,25.7723568 2.71508815,25.4319164 1.98049911,24.9919562 L1.98049911,24.9919562 Z M57.5644479,25.4461007 C56.4772027,25.2191753 55.9036747,25.0010856 55.8670356,24.8006404 C55.8132801,24.5065459 58.3915973,22.7513301 58.877361,22.7513301 C59.2593699,22.7513301 59.1294432,23.0982144 58.623189,23.429926 C57.9298685,23.8842062 58.0917041,24.9613623 58.8668055,25.0514116 C59.1868993,25.0885993 59.4363884,25.2614445 59.4766849,25.4739329 C59.5141911,25.6717068 59.4687493,25.8234658 59.3757021,25.811174 C59.2826568,25.7988822 58.4675918,25.6345993 57.5644479,25.4461007 L57.5644479,25.4461007 Z M57.7397384,24.4979055 C57.5916986,24.112124 57.4372212,24.1108705 56.9341562,24.4913712 C56.5566144,24.7769281 56.5706445,24.7934034 57.1966541,24.7995904 C57.7015829,24.8045795 57.8300384,24.7332226 57.7397384,24.4979055 L57.7397384,24.4979055 Z M55.4051568,22.6740719 C55.4051568,22.5020897 55.9320205,22.2404897 56.7501247,22.0062637 C58.1680952,21.6002918 58.1908274,21.5638356 57.7470637,20.4074055 C57.6690329,20.204061 57.7303829,20.0800973 57.9090493,20.0800973 C58.1477733,20.0800973 58.8449527,21.9073377 58.6480623,22.0169815 C58.5009,22.0989329 55.6681377,22.9568096 55.5446877,22.9568096 C55.4679452,22.9568096 55.4051568,22.8295767 55.4051568,22.6740719 L55.4051568,22.6740719 Z M4.37000712,17.7142239 C3.93823747,17.282454 3.94831521,17.1403138 4.44239815,16.6931745 C4.77555678,16.3916702 4.90618747,16.3717942 5.16157623,16.5837481 C5.43428671,16.8100775 5.61901911,17.8198235 5.38771562,17.8198235 C5.34045205,17.8198235 5.16744288,17.8713742 5.00325103,17.9343803 C4.83905938,17.9973867 4.55409945,17.8983162 4.37000712,17.7142239 L4.37000712,17.7142239 Z M54.7373486,17.8033648 C53.9401685,17.3390499 54.6369493,16.1758151 55.4512212,16.6115994 C55.8707527,16.8361262 55.929789,17.4184782 55.5695404,17.7787276 C55.2751089,18.0731595 55.2041651,18.0752599 54.7373486,17.8033648 L54.7373486,17.8033648 Z M51.2221233,14.1046346 C50.8991938,13.6482986 50.6680295,13.2535668 50.7084247,13.2274531 C50.7488199,13.2013393 51.3095795,12.7907205 51.9545589,12.3149669 C53.0367842,11.5166895 53.7676911,11.2283965 53.756889,11.6040701 C53.7544521,11.6888303 53.2458904,12.1210942 52.6267521,12.5646563 C51.4489952,13.4084234 51.2976514,13.6965908 51.8092664,14.1211934 C52.1285404,14.3861671 52.2341548,14.9464325 51.963376,14.938724 C51.8786158,14.9363108 51.5450527,14.5609708 51.2221233,14.1046346 L51.2221233,14.1046346 Z M7.04957178,13.9034439 C6.50365747,13.4591846 5.90263007,13.0087777 5.71395514,12.9025397 C5.41286486,12.7330036 5.45751329,12.6198006 6.07902678,11.9769304 C6.87181623,11.1568985 7.30455103,11.0674621 7.80481685,11.6202497 C8.24241678,12.1037922 8.23694322,12.6514921 7.78957068,13.1458334 C7.48136836,13.4863929 7.47455733,13.5626832 7.73820082,13.7212278 C8.48443685,14.1699842 8.59984849,14.2947117 8.46730027,14.509179 C8.26075582,14.8433749 8.14247897,14.7928403 7.04957178,13.9034439 L7.04957178,13.9034439 Z M7.49148637,12.5117141 C7.57860616,11.9195131 6.98597301,11.6972823 6.53648404,12.153599 C6.2150889,12.4798759 6.21891021,12.521806 6.59547801,12.8009051 C7.10572603,13.1790832 7.40764377,13.0816379 7.49148637,12.5117141 L7.49148637,12.5117141 Z M50.2713164,12.7342071 C50.2730466,12.5364331 50.3612568,12.2373487 50.4673397,12.0695749 C50.6039219,11.8535622 50.5365575,11.6329048 50.2365288,11.3135398 C49.8792432,10.9332275 49.734939,10.8980433 49.3157548,11.0890366 C48.948376,11.2564262 48.756674,11.2535328 48.5810897,11.0779484 C48.4504233,10.9472811 48.3835808,10.8086727 48.4325548,10.7699295 C48.6199973,10.6216401 51.6164527,9.59871473 51.8606363,9.59965562 C52.2814849,9.60127747 52.1587295,10.1454429 51.3957247,11.6605695 C50.6932911,13.055414 50.2649281,13.4644366 50.2713164,12.7342071 L50.2713164,12.7342071 Z M51.1662575,10.7424955 L51.4951726,10.2405099 L50.8750952,10.4566695 C50.3772432,10.6302216 50.3017788,10.7291686 50.4922356,10.958655 C50.7970397,11.3259236 50.7805068,11.3312258 51.1662575,10.7424955 L51.1662575,10.7424955 Z M8.6991824,11.3348121 C7.6314113,9.17688473 7.74441123,9.06798904 10.1255679,9.96023445 C11.7085993,10.5534136 12.2447106,11.1985508 10.9532834,10.9562776 C10.4165365,10.8555834 10.1853411,10.9197442 9.88363705,11.2531233 C9.56190164,11.6086371 9.54053486,11.7453516 9.75343048,12.0862516 C9.99779568,12.4775423 9.9274987,12.8883166 9.61617082,12.8883166 C9.53460925,12.8883166 9.12196438,12.1892396 8.6991824,11.3348121 L8.6991824,11.3348121 Z M9.34060336,10.299938 C8.74909377,9.98337185 8.66193658,10.0583988 8.96448247,10.6237112 C9.159255,10.9876467 9.25520075,11.0205033 9.50873322,10.8100901 C9.77610884,10.5881881 9.75403089,10.5211979 9.34060336,10.299938 L9.34060336,10.299938 Z M47.8024171,10.4476543 C47.8024171,10.1413952 49.9018171,7.95680979 50.1961336,7.95680979 C50.6290973,7.95680979 50.5472425,8.10620979 49.4005418,9.40892938 C48.4258253,10.5162635 47.8024171,10.9214575 47.8024171,10.4476543 L47.8024171,10.4476543 Z M11.3654885,8.93681815 C10.4625567,7.88878808 10.4293545,7.87121774 10.0317713,8.23102541 C9.79300644,8.44710473 9.57239897,8.51646534 9.49942911,8.39839788 C9.38094267,8.20668247 11.1599712,6.52256897 11.483924,6.51978021 C11.7688991,6.51732719 11.6412701,6.98448041 11.2859895,7.24426788 C10.9658544,7.47835644 11.0210741,7.60367384 11.895218,8.62687007 C12.7572851,9.63593014 12.9062236,10.0116043 12.4442049,10.0116043 C12.3602018,10.0116043 11.8747794,9.52795048 11.3654885,8.93681815 L11.3654885,8.93681815 Z M45.9942329,8.835555 C45.5195568,8.52776918 45.1311842,8.20426315 45.1311842,8.11665308 C45.1311842,7.89741493 47.0132445,5.49105637 47.1847151,5.49105637 C47.2607651,5.49105637 47.6774342,5.79745151 48.1106486,6.17193432 C49.1537075,7.07358884 49.1985452,7.95833733 48.2443808,8.81088247 C47.431311,9.53736 47.0824747,9.541185 45.9942329,8.835555 L45.9942329,8.835555 Z M47.9929829,8.23731822 C48.5510075,7.52790514 48.5302253,7.21848288 47.8843479,6.61990521 L47.3498425,6.1245413 L46.5710137,7.09204541 L45.7921849,8.05954952 L46.2322336,8.41456952 C46.8642288,8.9244487 47.5030726,8.86013733 47.9929829,8.23731822 L47.9929829,8.23731822 Z M12.7834373,7.5952574 L11.7942882,6.23134767 L12.3693355,5.77282089 C13.1482305,5.15175185 13.5835718,5.06761911 14.1100911,5.43640767 C14.4365992,5.66510281 14.5311055,5.90287315 14.4675672,6.33578795 C14.3900209,6.86414486 14.4510132,6.93738267 15.0644084,7.0524563 C15.4488588,7.12457959 15.7476226,7.30540973 15.7476226,7.46597918 C15.7476226,7.80577788 15.3637823,7.82959233 14.5954276,7.53746445 C14.2860471,7.41983815 13.8975783,7.37553308 13.7321634,7.43900877 C13.4741209,7.5380289 13.4791533,7.60717562 13.7675982,7.92590363 C13.9525019,8.13022007 14.103787,8.4002324 14.103787,8.52593116 C14.103787,9.13389925 13.6854635,8.83903582 12.7834373,7.5952574 L12.7834373,7.5952574 Z M13.899698,6.51585555 C14.1984296,5.95767041 13.6837157,5.61587548 13.008024,5.92374123 C12.502057,6.15427521 12.4954913,6.18004603 12.8298062,6.62325719 C13.2083108,7.12505219 13.594409,7.08629342 13.899698,6.51585555 L13.899698,6.51585555 Z M44.1551568,7.61524521 C43.9816151,7.54521945 43.8968363,7.0006537 43.8937747,5.93626192 L43.8892418,4.36091938 L43.260376,5.43968651 C42.9144986,6.03300842 42.5004432,6.51845363 42.3402514,6.51845363 C42.1800596,6.51845363 42.0489925,6.46527021 42.0489925,6.40026801 C42.0489925,6.04668658 43.7847329,3.43238815 43.9777151,3.49530596 C44.103561,3.53633527 44.2989925,4.23746548 44.4120062,5.05337322 L44.6174856,6.53684199 L45.1268918,5.60299027 C45.4070671,5.08937178 45.7538137,4.66913856 45.8974397,4.66913856 C46.0410678,4.66913856 46.1585815,4.7252813 46.1585815,4.79390034 C46.1585815,5.00513507 44.6240281,7.74952685 44.5147459,7.7337337 C44.458239,7.72556753 44.296424,7.67224788 44.1551568,7.61524521 L44.1551568,7.61524521 Z M15.2852938,6.01464205 C14.4857392,4.64717507 14.3383403,4.16513116 14.7630403,4.30669788 C15.1163377,4.4244637 16.6033708,6.91391692 16.459485,7.14672884 C16.2364068,7.50767712 16.057299,7.33499199 15.2852938,6.01464205 L15.2852938,6.01464205 Z M16.4081634,5.3844261 C16.0448659,4.6476974 15.7476226,3.90797137 15.7476226,3.74059048 C15.7476226,3.18789185 16.3675876,3.42309247 17.3616392,4.35291123 L18.3416116,5.26956062 L18.3288637,3.79334445 C18.3187373,2.62071021 18.3812969,2.30402281 18.6330692,2.25340089 C18.8526097,2.20925959 19.1528642,2.64619685 19.6100116,3.6750674 C20.3835925,5.41612233 20.189174,6.11514432 19.3695395,4.53966575 L18.8489492,3.53900158 L18.8393817,4.70838164 C18.8341198,5.35154075 18.7555767,5.92364301 18.6648419,5.97972041 C18.5741069,6.0357976 18.0563661,5.7025839 17.5143064,5.23924541 L16.5287435,4.39681192 L17.0536202,5.43260651 C17.526729,6.36624164 17.5661217,6.72393308 17.1958346,6.72393308 C17.1259128,6.72393308 16.7714608,6.121155 16.4081634,5.3844261 L16.4081634,5.3844261 Z M39.6940726,5.25523315 C39.0556644,4.7530611 39.0679479,4.39629658 39.7808507,2.73457685 C40.1001267,1.9903726 40.2745418,1.78509966 40.4437932,1.95435062 C40.6130445,2.12360178 40.5570842,2.46408637 40.2310952,3.24850541 C39.6817644,4.57034158 39.6798308,4.80188466 40.2157336,5.08869062 C40.867276,5.43738493 41.201137,5.18988226 41.7483658,3.95250164 C42.0400685,3.29291137 42.3802582,2.81982349 42.5628575,2.81982349 C42.8411055,2.81982349 42.8392952,2.90661801 42.546789,3.59037144 C42.3654884,4.01417281 42.165263,4.49961801 42.1018397,4.66913856 C41.6995274,5.74447767 40.6429973,6.00165658 39.6940726,5.25523315 L39.6940726,5.25523315 Z M21.1087295,4.64871329 C20.3809089,4.36052178 20.0765753,3.84944507 20.0692253,2.90304021 C20.061974,1.96929596 20.4283726,1.50170651 21.3469377,1.2724613 C22.6372459,0.950438014 23.6549692,1.88976842 23.5165151,3.27492062 C23.4157603,4.28291384 22.0921541,5.03811452 21.1087295,4.64871329 L21.1087295,4.64871329 Z M22.6165068,3.93528329 C23.0108137,3.54097603 23.0361205,2.61968096 22.6665288,2.11423377 C22.2807575,1.58665788 21.3027308,1.63600171 20.8408993,2.2063389 C19.942387,3.31595404 21.6110384,4.94075219 22.6165068,3.93528329 L22.6165068,3.93528329 Z M38.0069753,4.20680979 C38.0686418,3.95252897 38.1774308,3.46708377 38.2487281,3.12804267 C38.3740932,2.53189479 38.3672753,2.52513123 38.0415719,2.92256322 C37.8563363,3.14859062 37.5397295,3.556575 37.3379979,3.82919507 C36.8391,4.50340932 36.3001623,4.28013205 36.2811247,3.39134096 C36.2731829,3.02049945 36.1935925,2.53215226 36.1042603,2.30612486 C35.9708877,1.96866534 35.9165404,2.04291637 35.8003911,2.72128685 C35.6383911,3.66745541 35.3579918,4.2110139 35.1428733,3.99589644 C35.0616699,3.91469322 35.1650795,3.10459171 35.3726733,2.19567041 C35.6638192,0.920912671 35.8241322,0.557341438 36.0738699,0.605435959 C36.2778452,0.644717466 36.4605205,1.00887226 36.5676185,1.58969486 C36.9469048,3.64668021 36.8363836,3.56883473 37.7451884,2.41911041 C38.5247199,1.43293048 39.1702562,1.08016952 39.1740062,1.63831747 C39.1791123,2.39853021 38.4343089,4.66913856 38.1798349,4.66913856 C37.988063,4.66913856 37.9315233,4.51792418 38.0069753,4.20680979 L38.0069753,4.20680979 Z M24.3103993,3.70442219 C24.2541699,3.50042712 24.1506945,2.96365911 24.0804555,2.51160432 C24.0102144,2.05954952 23.9023295,1.43540651 23.8407082,1.12461884 C23.6566603,0.196377658 24.3569568,0.415809247 25.4671253,1.63424075 C26.5501233,2.82285349 26.5186356,2.86233925 26.1192904,0.816399658 C26.0197726,0.306545466 26.060437,0.148591356 26.291213,0.148591356 C26.6392027,0.148591356 26.7963514,0.664484589 26.9781288,2.40364603 C27.1457486,4.00733486 26.8192767,4.04276158 25.5098486,2.56297418 L24.5552733,1.48420788 L24.6963637,2.51160432 C24.773963,3.07667281 24.8496041,3.61990911 24.8644562,3.7187961 C24.9184397,4.07825363 24.4098041,4.06505815 24.3103993,3.70442219 L24.3103993,3.70442219 Z M27.7985733,2.87893603 C27.5560151,1.41119692 27.6369781,0.148591356 27.97365,0.148591356 C28.2153329,0.148591356 28.2885226,0.459093493 28.3126911,1.5869476 C28.3296432,2.37804267 28.3527596,3.13317966 28.364061,3.26502904 C28.3753623,3.39687822 28.2816904,3.53906116 28.1559021,3.58099089 C28.0276849,3.62373 27.8706801,3.31525952 27.7985733,2.87893603 L27.7985733,2.87893603 Z M30.1311842,3.49662596 C29.424224,3.23819301 28.8983075,2.53400486 28.8983075,1.84583959 C28.8983075,0.913246233 29.1691048,0.461984589 29.913863,0.153496151 C31.1407582,-0.35469974 32.3914582,0.427595548 32.3914582,1.70319555 C32.3914582,2.69291425 32.1136233,3.14417301 31.337737,3.4146487 C30.630787,3.66109274 30.5888815,3.66393986 30.1311842,3.49662596 L30.1311842,3.49662596 Z M31.4521233,2.70240658 C31.8333247,2.32120521 31.8801473,1.15782842 31.5284445,0.806125685 C31.1269151,0.404596151 29.9712801,0.501407877 29.7274541,0.956998973 C29.2054068,1.93245637 29.6901555,3.02530295 30.6448829,3.02530295 C30.9112726,3.02530295 31.2745315,2.87999959 31.4521233,2.70240658 L31.4521233,2.70240658 Z" id="path2384" sketch:type="MSShapeGroup"></path>
        </g>
    </g>
</svg>